<?xml version="1.0" encoding="UTF-8" standalone="no"?>
<!-- Created with Inkscape (http://www.inkscape.org/) -->

<svg
   xmlns:dc="http://purl.org/dc/elements/1.1/"
   xmlns:cc="http://creativecommons.org/ns#"
   xmlns:rdf="http://www.w3.org/1999/02/22-rdf-syntax-ns#"
   xmlns:svg="http://www.w3.org/2000/svg"
   xmlns="http://www.w3.org/2000/svg"
   xmlns:sodipodi="http://sodipodi.sourceforge.net/DTD/sodipodi-0.dtd"
   xmlns:inkscape="http://www.inkscape.org/namespaces/inkscape"
   width="1024px"
   height="768px"
   id="svg2324"
   sodipodi:version="0.32"
   inkscape:version="0.48.2 r9819"
   sodipodi:docname="Group_homomorphism_ver.3.svg"
   inkscape:output_extension="org.inkscape.output.svg.inkscape"
   sodipodi:modified="true"
   version="1.1">
  <defs
     id="defs2326">
    <marker
       inkscape:stockid="Arrow1Mend"
       orient="auto"
       refY="0.0"
       refX="0.0"
       id="Arrow1Mend"
       style="overflow:visible;">
      <path
         id="path4369"
         d="M 0.0,0.0 L 5.0,-5.0 L -12.5,0.0 L 5.0,5.0 L 0.0,0.0 z "
         style="fill-rule:evenodd;stroke:#000000;stroke-width:1.0pt;marker-start:none;"
         transform="scale(0.4) rotate(180) translate(10,0)" />
    </marker>
    <marker
       inkscape:stockid="Arrow1Lend"
       orient="auto"
       refY="0.0"
       refX="0.0"
       id="Arrow1Lend"
       style="overflow:visible;">
      <path
         id="path4363"
         d="M 0.0,0.0 L 5.0,-5.0 L -12.5,0.0 L 5.0,5.0 L 0.0,0.0 z "
         style="fill-rule:evenodd;stroke:#000000;stroke-width:1.0pt;marker-start:none;"
         transform="scale(0.8) rotate(180) translate(12.5,0)" />
    </marker>
    <marker
       inkscape:stockid="Arrow2Lend"
       orient="auto"
       refY="0.0"
       refX="0.0"
       id="Arrow2Lend"
       style="overflow:visible;">
      <path
         id="path4381"
         style="font-size:12.0;fill-rule:evenodd;stroke-width:0.62500000;stroke-linejoin:round;"
         d="M 8.7185878,4.0337352 L -2.2072895,0.016013256 L 8.7185884,-4.0017078 C 6.9730900,-1.6296469 6.9831476,1.6157441 8.7185878,4.0337352 z "
         transform="scale(1.1) rotate(180) translate(1,0)" />
    </marker>
    <marker
       inkscape:stockid="Arrow2Mend"
       orient="auto"
       refY="0.0"
       refX="0.0"
       id="Arrow2Mend"
       style="overflow:visible;">
      <path
         id="path4387"
         style="font-size:12.0;fill-rule:evenodd;stroke-width:0.62500000;stroke-linejoin:round;"
         d="M 8.7185878,4.0337352 L -2.2072895,0.016013256 L 8.7185884,-4.0017078 C 6.9730900,-1.6296469 6.9831476,1.6157441 8.7185878,4.0337352 z "
         transform="scale(0.6) rotate(180) translate(0,0)" />
    </marker>
  </defs>
  <sodipodi:namedview
     id="base"
     pagecolor="#ffffff"
     bordercolor="#666666"
     borderopacity="1.0"
     inkscape:pageopacity="0.0"
     inkscape:pageshadow="2"
     inkscape:zoom="0.70710678"
     inkscape:cx="442.78506"
     inkscape:cy="363.10211"
     inkscape:current-layer="layer1"
     inkscape:document-units="px"
     inkscape:window-width="1436"
     inkscape:window-height="856"
     inkscape:window-x="0"
     inkscape:window-y="0"
     showgrid="false"
     inkscape:window-maximized="1" />
  <metadata
     id="metadata2329">
    <rdf:RDF>
      <cc:Work
         rdf:about="">
        <dc:format>image/svg+xml</dc:format>
        <dc:type
           rdf:resource="http://purl.org/dc/dcmitype/StillImage" />
        <dc:title></dc:title>
      </cc:Work>
    </rdf:RDF>
  </metadata>
  <g
     id="layer1"
     inkscape:label="Layer 1"
     inkscape:groupmode="layer">
    <path
       sodipodi:type="arc"
       style="opacity:0.40963853;fill:#002255;fill-opacity:1;fill-rule:evenodd;stroke:#000000;stroke-width:1px;stroke-linecap:butt;stroke-linejoin:miter;stroke-opacity:1"
       id="path2169"
       sodipodi:cx="-37.142857"
       sodipodi:cy="293.79074"
       sodipodi:rx="274.28571"
       sodipodi:ry="472.85715"
       d="M 237.14285 293.79074 A 274.28571 472.85715 0 1 1  -311.42856,293.79074 A 274.28571 472.85715 0 1 1  237.14285 293.79074 z"
       transform="matrix(0.664713,0,0,0.6122118,237.86827,131.82745)" />
    <path
       sodipodi:type="arc"
       style="opacity:0.40963853;fill:#ffff00;fill-opacity:1;stroke:#000000;stroke-opacity:1"
       id="path4167"
       sodipodi:cx="553.30383"
       sodipodi:cy="501.77063"
       sodipodi:rx="187.14688"
       sodipodi:ry="204.77666"
       d="M 740.45071 501.77063 A 187.14688 204.77666 0 1 1  366.15695,501.77063 A 187.14688 204.77666 0 1 1  740.45071 501.77063 z"
       transform="matrix(1.3967193,0,0,1.328921,-39.510684,-341.00307)" />
    <path
       sodipodi:type="arc"
       style="opacity:0.40963853;fill:#ffff00;fill-opacity:1;stroke:#000000;stroke-opacity:1"
       id="path4169"
       sodipodi:cx="136.96982"
       sodipodi:cy="380.39639"
       sodipodi:rx="46.108654"
       sodipodi:ry="46.78672"
       d="M 183.07847 380.39639 A 46.108654 46.78672 0 1 1  90.861164,380.39639 A 46.108654 46.78672 0 1 1  183.07847 380.39639 z"
       transform="matrix(1.3967193,0,0,1.328921,21.101879,-348.21187)" />
    <path
       sodipodi:type="arc"
       style="opacity:0.40963853;fill:#aa0000;fill-opacity:1;stroke:#000000;stroke-opacity:1"
       id="path4171"
       sodipodi:cx="145.10664"
       sodipodi:cy="565.50903"
       sodipodi:rx="51.533199"
       sodipodi:ry="52.889336"
       d="M 196.63984 565.50903 A 51.533199 52.889336 0 1 1  93.573444,565.50903 A 51.533199 52.889336 0 1 1  196.63984 565.50903 z"
       transform="matrix(1.1991841,0,0,1.1806783,27.83698,-263.66716)" />
    <path
       sodipodi:type="arc"
       style="opacity:0.40963853;fill:#003380;fill-opacity:1;stroke:#000000;stroke-opacity:1"
       id="path4213"
       sodipodi:cx="477.36017"
       sodipodi:cy="494.98993"
       sodipodi:rx="75.943665"
       sodipodi:ry="132.90141"
       d="M 553.30383 494.98993 A 75.943665 132.90141 0 1 1  401.4165,494.98993 A 75.943665 132.90141 0 1 1  553.30383 494.98993 z"
       transform="matrix(1.3967193,0,0,1.328921,14.776976,-348.53715)" />
    <path
       style="fill:none;fill-rule:evenodd;stroke:#000000;stroke-width:1.36239851px;stroke-linecap:butt;stroke-linejoin:miter;stroke-opacity:1"
       d="M 225.66927,23.04106 C 225.66927,23.04106 225.66927,23.04106 225.66927,23.04106 z "
       id="path4217" />
    <path
       style="fill:none;fill-rule:evenodd;stroke:#000000;stroke-width:1.36239851px;stroke-linecap:butt;stroke-linejoin:miter;stroke-opacity:1"
       d="M 223.77513,19.436654 C 223.77513,19.436654 223.77513,19.436654 223.77513,19.436654 z "
       id="path4219" />
    <path
       style="fill:none;fill-rule:evenodd;stroke:#000000;stroke-width:3.762;stroke-linecap:butt;stroke-linejoin:miter;stroke-opacity:1;stroke-miterlimit:4;stroke-dasharray:none"
       d="M 220.17879,22.71578 L 696.0258,133.30045"
       id="path4223"
       sodipodi:nodetypes="cc" />
    <path
       style="fill:none;fill-rule:evenodd;stroke:#000000;stroke-width:3.862;stroke-linecap:butt;stroke-linejoin:miter;stroke-opacity:1;stroke-miterlimit:4;stroke-dasharray:none"
       d="M 241.88213,598.2677 L 699.20491,484.40391"
       id="path4225"
       sodipodi:nodetypes="cc" />
    <path
       style="fill:none;fill-rule:evenodd;stroke:#000000;stroke-width:1.36239851px;stroke-linecap:butt;stroke-linejoin:miter;stroke-opacity:1"
       d="M 727.61704,742.11831 C 728.15844,742.42739 728.8798,742.11831 727.61704,742.11831 z "
       id="path4231" />
    <path
       style="fill:none;fill-rule:evenodd;stroke:#000000;stroke-width:1.36239851px;stroke-linecap:butt;stroke-linejoin:miter;stroke-opacity:1"
       d="M 333.6354,-56.25568 C 333.6354,-56.25568 333.6354,-56.25568 333.6354,-56.25568 z "
       id="path4239" />
    <path
       style="fill:none;fill-rule:evenodd;stroke:#000000;stroke-width:3.455;stroke-linecap:butt;stroke-linejoin:miter;stroke-opacity:1;stroke-miterlimit:4;stroke-dasharray:none"
       d="M 208.55172,466.71086 L 667.87588,402.00021"
       id="path4319"
       sodipodi:nodetypes="cc" />
    <path
       style="fill:none;fill-rule:evenodd;stroke:#000000;stroke-width:3.4289999;stroke-linecap:butt;stroke-linejoin:miter;stroke-miterlimit:4;stroke-dasharray:none;stroke-opacity:1"
       d="M 198.54643,341.80184 L 667.81471,398.98041"
       id="path4321"
       sodipodi:nodetypes="cc" />
    <path
       style="fill:none;fill-rule:evenodd;stroke:#000000;stroke-width:3.462;stroke-linecap:butt;stroke-linejoin:miter;stroke-opacity:1;stroke-miterlimit:4;stroke-dasharray:none"
       d="M 214.30442,219.4807 L 655.83159,217.67851"
       id="path4323"
       sodipodi:nodetypes="cc" />
    <path
       style="fill:none;fill-rule:evenodd;stroke:#000000;stroke-width:3.671;stroke-linecap:butt;stroke-linejoin:miter;stroke-opacity:1;stroke-miterlimit:4;stroke-dasharray:none"
       d="M 221.8853,96.935515 L 657.30419,215.22146"
       id="path4325"
       sodipodi:nodetypes="cc" />
    <path
       style="opacity:1;fill:#000000;fill-opacity:1;stroke:#000000;stroke-width:1.36239851;stroke-opacity:1"
       id="path4339"
       d="M 387.34778,184.8843 C 392.27239,181.15395 398.43152,179.35151 404.08863,177.15907 C 407.55754,177.21579 409.69804,179.3142 412.38093,180.98798 C 414.76513,183.34565 417.45406,182.11638 420.23331,182.38529 C 410.16503,186.4168 421.43117,182.25033 430.83342,178.82908 C 434.23521,178.4667 436.31981,180.28023 439.04797,181.68916 C 440.69524,183.82733 443.08488,185.1709 445.09809,186.84018 C 449.96337,187.60175 457.12823,183.93826 444.12601,189.49995 C 448.7629,185.97173 455.55486,185.05295 460.34557,183.63909 C 462.34318,185.19299 464.97827,185.89278 467.13604,187.00707 C 467.54853,187.02182 467.96101,187.03656 468.3735,187.05131 L 460.41134,191.60233 C 459.974,191.54926 459.53665,191.49621 459.09931,191.44314 C 456.90456,190.28524 454.49083,189.27446 452.30334,188.08618 C 452.65722,187.84114 453.42363,186.82934 453.06505,187.06817 C 445.05819,190.56203 443.96739,192.19446 436.94592,191.04394 C 434.9231,189.32926 432.59956,187.87419 430.84482,185.81999 C 428.20956,184.84684 426.23744,182.73689 423.01074,183.51409 C 417.63676,185.40199 435.54431,176.72416 412.40972,187.09758 C 409.48384,186.59228 406.59887,187.59219 404.1643,185.07119 C 401.56898,183.56211 399.62758,181.58979 396.28099,181.89933 C 406.15191,176.70408 398.98019,179.91109 396.3285,182.39776 L 387.34778,184.8843 z " />
    <path
       style="opacity:1;fill:#000000;fill-opacity:1;stroke:#000000;stroke-width:1.36239851;stroke-opacity:1"
       id="path4341"
       d="M 468.97467,174.71224 C 471.05461,178.09205 473.65851,181.18029 476.10776,184.32928 C 479.00247,187.82667 476.23863,188.70209 475.47215,191.41649 C 470.25794,194.91979 464.57035,196.98494 458.76636,199.17643 C 458.48812,199.22107 458.20988,199.26571 457.93164,199.31035 L 465.37921,193.88245 C 465.60729,193.80232 465.83538,193.7222 466.06346,193.64206 C 469.64954,192.33237 481.27024,187.51812 466.76544,194.60363 C 467.01942,193.55155 472.06229,191.06906 468.17073,188.78248 C 465.67846,185.60019 463.09135,182.46003 460.84476,179.11659 L 468.97467,174.71224 z " />
    <path
       style="opacity:1;fill:#000000;fill-opacity:1;stroke:#000000;stroke-width:1.36239851;stroke-opacity:1"
       id="path4343"
       d="M 390.71979,421.54556 C 396.07981,417.36108 402.13073,414.83593 408.6289,413.25525 C 411.68034,413.29209 414.52047,414.61995 417.35258,415.57863 C 420.49544,417.226 423.21801,415.85505 426.33648,415.40069 C 437.87264,409.87052 419.23994,419.14637 427.90779,414.57132 C 435.40021,407.80851 437.80669,408.37089 444.96908,409.75767 C 447.18067,412.211 450.15146,412.4557 453.00844,413.39902 C 465.25831,408.61826 433.11214,425.07878 460.04749,410.27801 C 442.20666,419.46642 465.42235,407.23187 466.57523,406.65848 L 459.13819,412.04952 C 470.49261,405.15891 460.83653,411.5965 452.7991,415.84321 C 468.71842,406.97282 451.59778,418.39931 445.42072,418.53342 C 442.56035,417.43168 439.49444,416.94597 437.2142,414.62379 C 436.04496,414.5137 435.36283,411.2152 436.53117,411.3336 C 430.80837,414.62489 425.29035,418.46455 419.0317,420.81721 C 415.74799,421.09609 412.80646,422.28008 409.60871,420.48961 C 406.86488,419.6082 404.15312,418.33603 401.19363,418.52922 C 390.24243,417.05202 406.13782,418.21535 399.45284,418.29442 L 390.71979,421.54556 z " />
    <path
       style="opacity:1;fill:#000000;fill-opacity:1;stroke:#000000;stroke-width:1.36239851;stroke-opacity:1"
       id="path4345"
       d="M 460.76947,397.44127 C 463.10769,400.06981 465.94834,402.2054 468.70051,404.41513 C 472.54767,405.83937 471.53025,408.52411 472.59058,410.94343 C 471.8663,413.36408 469.3979,414.2815 467.60238,415.81896 L 458.91599,419.1217 C 460.74651,417.76142 463.05305,416.75486 464.11453,414.71601 C 463.33387,413.36554 464.66888,409.60305 460.86289,409.09103 C 458.04716,406.80591 455.15377,404.58427 452.67846,401.95221 L 460.76947,397.44127 z " />
    <path
       sodipodi:type="arc"
       style="fill:#000000;fill-opacity:1;stroke:#000000;stroke-opacity:1"
       id="path4445"
       sodipodi:cx="132.90141"
       sodipodi:cy="377.00604"
       sodipodi:rx="2.7122736"
       sodipodi:ry="2.7122736"
       d="m 135.61369,377.00604 a 2.7122736,2.7122736 0 1 1 -5.42455,0 2.7122736,2.7122736 0 1 1 5.42455,0 z"
       transform="matrix(1.8418419,0,0,1.8418419,-36.608526,-543.21705)" />
    <path
       sodipodi:type="arc"
       style="fill:#000000;fill-opacity:1;stroke:#000000;stroke-opacity:1"
       id="path4447"
       sodipodi:cx="139.00403"
       sodipodi:cy="582.46075"
       sodipodi:rx="3.390342"
       sodipodi:ry="3.390342"
       d="m 142.39437,582.46075 a 3.390342,3.390342 0 1 1 -6.78068,0 3.390342,3.390342 0 1 1 6.78068,0 z"
       transform="matrix(1.5208143,0,0,1.5208634,-21.454907,-497.56085)" />
    <text
       xml:space="preserve"
       style="font-size:62.11803436px"
       x="165.75125"
       y="267.22018"
       id="text2421"
       transform="scale(0.98529263,1.0149269)"><tspan
         sodipodi:role="line"
         id="tspan2423"
         x="165.75125"
         y="267.22018"
         style="font-style:italic;font-variant:normal;font-weight:normal;font-stretch:normal;font-family:Liberation Serif;-inkscape-font-specification:Liberation Serif;font-size:56.00000015000000531px"><tspan
           x="165.75125"
           y="267.22018"
           id="tspan2425"
           style="font-style:italic;font-variant:normal;font-weight:normal;font-stretch:normal;font-family:Liberation Serif;-inkscape-font-specification:Liberation Serif;font-size:56.00000015000000531px">aN</tspan></tspan></text>
    <text
       xml:space="preserve"
       style="font-size:87.19350433px;font-style:italic;font-variant:normal;font-weight:500;font-stretch:normal;text-align:start;line-height:125%;writing-mode:lr-tb;text-anchor:start;font-family:CMU Serif;-inkscape-font-specification:CMU Serif Medium Italic"
       x="185.98013"
       y="728.09912"
       id="text2439"
       transform="scale(1.0251915,0.97542751)"
       sodipodi:linespacing="125%"><tspan
         sodipodi:role="line"
         id="tspan2441"
         x="185.98013"
         y="728.09912"
         style="font-style:italic;font-variant:normal;font-weight:normal;font-stretch:normal;font-family:Liberation Serif;-inkscape-font-specification:Liberation Serif Italic"><tspan
           x="185.98013"
           y="728.09912"
           id="tspan2443"
           style="font-size:87.19350433px;font-style:italic;font-variant:normal;font-weight:normal;font-stretch:normal;text-align:start;line-height:125%;writing-mode:lr-tb;text-anchor:start;font-family:Liberation Serif;-inkscape-font-specification:Liberation Serif Italic">G</tspan></tspan></text>
    <text
       xml:space="preserve"
       style="font-size:87.19350433px;font-style:italic;font-variant:normal;font-weight:500;font-stretch:normal;text-align:start;line-height:125%;writing-mode:lr-tb;text-anchor:start;font-family:CMU Serif;-inkscape-font-specification:CMU Serif Medium Italic"
       x="697.0733"
       y="728.16296"
       id="text2445"
       transform="scale(1.0251915,0.97542751)"
       sodipodi:linespacing="125%"><tspan
         sodipodi:role="line"
         id="tspan2447"
         x="697.0733"
         y="728.16296"
         style="font-style:italic;font-variant:normal;font-weight:normal;font-stretch:normal;font-family:Liberation Serif;-inkscape-font-specification:Liberation Serif Italic">H</tspan></text>
    <text
       xml:space="preserve"
       style="font-size:56px;font-style:normal;font-variant:normal;font-weight:500;font-stretch:normal;text-align:start;line-height:125%;writing-mode:lr-tb;text-anchor:start;font-family:CMU Serif;-inkscape-font-specification:CMU Serif Medium"
       x="189.43042"
       y="455.44827"
       id="text2457"
       transform="scale(1.0475908,0.9545712)"
       sodipodi:linespacing="125%"><tspan
         sodipodi:role="line"
         id="tspan2459"
         x="189.43042"
         y="455.44827"
         style="font-size:56px;font-style:normal;font-variant:normal;font-weight:normal;font-stretch:normal;text-align:start;line-height:125%;writing-mode:lr-tb;text-anchor:start;font-family:Liberation Serif;-inkscape-font-specification:Liberation Serif"><tspan
           x="189.43042"
           y="455.44827"
           id="tspan2461"
           style="font-size:56px;font-style:normal;font-variant:normal;font-weight:normal;font-stretch:normal;text-align:start;line-height:125%;writing-mode:lr-tb;text-anchor:start;font-family:Liberation Serif;-inkscape-font-specification:Liberation Serif">1</tspan></tspan></text>
    <text
       xml:space="preserve"
       style="font-size:56px;font-style:normal;font-variant:normal;font-weight:500;font-stretch:normal;text-align:start;line-height:125%;writing-mode:lr-tb;text-anchor:start;font-family:CMU Serif;-inkscape-font-specification:CMU Serif Medium"
       x="653.1759"
       y="457.31918"
       id="text2463"
       transform="scale(1.0376759,0.96369203)"
       sodipodi:linespacing="125%"><tspan
         sodipodi:role="line"
         id="tspan2465"
         x="653.1759"
         y="457.31918"
         style="-inkscape-font-specification:Liberation Serif;font-family:Liberation Serif;font-weight:normal;font-style:normal;font-stretch:normal;font-variant:normal"><tspan
           x="653.1759"
           y="457.31918"
           id="tspan2467"
           style="font-size:56px;font-style:normal;font-variant:normal;font-weight:normal;font-stretch:normal;text-align:start;line-height:125%;writing-mode:lr-tb;text-anchor:start;font-family:Liberation Serif;-inkscape-font-specification:Liberation Serif">1</tspan></tspan></text>
    <text
       xml:space="preserve"
       style="font-size:55.99999995999999669px;-inkscape-font-specification:Liberation Serif;font-family:Liberation Serif"
       x="212.19302"
       y="191.46817"
       id="text2469"
       transform="scale(0.9937587,1.0062805)"><tspan
         sodipodi:role="line"
         id="tspan2471"
         x="212.19302"
         y="191.46817"
         style="-inkscape-font-specification:Liberation Serif;font-family:Liberation Serif;font-weight:500;font-style:italic;font-stretch:normal;font-variant:normal;font-size:55.99999995999999669px"><tspan
           x="212.19302"
           y="191.46817"
           id="tspan2473"
           style="-inkscape-font-specification:Liberation Serif;font-family:Liberation Serif;font-weight:500;font-style:italic;font-stretch:normal;font-variant:normal;font-size:55.99999995999999669px">a</tspan></tspan></text>
    <text
       xml:space="preserve"
       style="font-size:56px;font-style:italic;font-variant:normal;font-weight:500;font-stretch:normal;text-align:start;line-height:100%;writing-mode:lr-tb;text-anchor:start;font-family:CMU Serif;-inkscape-font-specification:CMU Serif Medium Italic"
       x="463.16501"
       y="680.93359"
       id="text2271"
       sodipodi:linespacing="100%"
       transform="scale(1.0250126,0.97559777)"><tspan
         sodipodi:role="line"
         id="tspan2273"
         x="463.16501"
         y="680.93359"
         style="font-size:56px;font-style:italic;font-variant:normal;font-weight:normal;font-stretch:normal;text-align:start;line-height:100%;writing-mode:lr-tb;text-anchor:start;font-family:Liberation Serif;-inkscape-font-specification:Liberation Serif Italic">h</tspan></text>
    <path
       transform="matrix(1.8418419,0,0,1.8418419,410.89917,-478.2324)"
       d="m 135.61369,377.00604 a 2.7122736,2.7122736 0 1 1 -5.42455,0 2.7122736,2.7122736 0 1 1 5.42455,0 z"
       sodipodi:ry="2.7122736"
       sodipodi:rx="2.7122736"
       sodipodi:cy="377.00604"
       sodipodi:cx="132.90141"
       id="path2240"
       style="fill:#000000;fill-opacity:1;stroke:#000000;stroke-opacity:1"
       sodipodi:type="arc" />
    <path
       sodipodi:type="arc"
       style="fill:#000000;fill-opacity:1;stroke:#000000;stroke-opacity:1"
       id="path2242"
       sodipodi:cx="132.90141"
       sodipodi:cy="377.00604"
       sodipodi:rx="2.7122736"
       sodipodi:ry="2.7122736"
       d="m 135.61369,377.00604 a 2.7122736,2.7122736 0 1 1 -5.42455,0 2.7122736,2.7122736 0 1 1 5.42455,0 z"
       transform="matrix(1.8418376,0,0,1.8418929,422.71511,-293.63642)" />
    <text
       xml:space="preserve"
       style="font-size:56px;font-style:italic;font-variant:normal;font-weight:500;font-stretch:normal;text-align:start;line-height:125%;letter-spacing:0px;word-spacing:0px;writing-mode:lr-tb;text-anchor:start;fill:#000000;fill-opacity:1;stroke:none;font-family:CMU Serif;-inkscape-font-specification:Sans Italic"
       x="91.162384"
       y="517.35785"
       id="text3203"
       sodipodi:linespacing="125%"><tspan
         sodipodi:role="line"
         id="tspan3205"
         x="91.162384"
         y="517.35785"
         dx="0 0 0 0 0 0 0 10"
         style="-inkscape-font-specification:Liberation Serif;font-family:Liberation Serif;font-weight:normal;font-style:normal;font-stretch:normal;font-variant:normal"><tspan
           style="font-style:italic"
           id="tspan3058">N</tspan><tspan
           style="font-style:normal;-inkscape-font-specification:Liberation Serif;font-family:Liberation Serif;font-weight:normal;font-stretch:normal;font-variant:normal"
           id="tspan3209"
           dx="0 0 0 0"> = ker</tspan><tspan
           style="font-style:italic"
           id="tspan3056">h</tspan></tspan></text>
    <text
       xml:space="preserve"
       style="font-size:56px;font-style:italic;font-variant:normal;font-weight:500;font-stretch:normal;text-align:start;line-height:125%;letter-spacing:0px;word-spacing:0px;writing-mode:lr-tb;text-anchor:start;fill:#000000;fill-opacity:1;stroke:none;font-family:CMU Serif;-inkscape-font-specification:Sans Italic"
       x="760.28119"
       y="486.02759"
       id="text3211"
       sodipodi:linespacing="125%"><tspan
         sodipodi:role="line"
         id="tspan3213"
         x="760.28119"
         y="486.02759"
         dx="0 0 10"
         style="-inkscape-font-specification:Liberation Serif;font-family:Liberation Serif;font-weight:normal;font-style:normal;font-stretch:normal;font-variant:normal">im<tspan
   style="font-style:italic"
   id="tspan3060">h</tspan></tspan></text>
    <text
       xml:space="preserve"
       style="font-size:56px;font-style:italic;font-variant:normal;font-weight:500;font-stretch:normal;text-align:start;line-height:125%;letter-spacing:0px;word-spacing:0px;writing-mode:lr-tb;text-anchor:start;fill:#000000;fill-opacity:1;stroke:none;font-family:CMU Serif;-inkscape-font-specification:Sans Italic"
       x="665.49225"
       y="265.2478"
       id="text3217"
       sodipodi:linespacing="125%"><tspan
         sodipodi:role="line"
         id="tspan3219"
         x="665.49225"
         y="265.2478"
         style="-inkscape-font-specification:Liberation Serif;font-family:Liberation Serif;font-weight:normal;letter-spacing:0px">h(<tspan
   style="font-style:italic;-inkscape-font-specification:Liberation Serif;font-family:Liberation Serif;font-weight:normal;letter-spacing:0px"
   id="tspan5369">a</tspan>)</tspan></text>
    <path
       style="fill:none;stroke:#000000;stroke-width:3.70000005;stroke-linecap:butt;stroke-linejoin:miter;stroke-miterlimit:4;stroke-opacity:1;stroke-dasharray:none;marker-end:url(#Arrow2Mend)"
       d="m 291.32799,680.86523 398.80823,0"
       id="path5404"
       inkscape:connector-curvature="0" />
  </g>
</svg>
